<svg width="49" height="54" fill="none" xmlns="http://www.w3.org/2000/svg"><circle cx="24.5" cy="29.5" r="23" stroke="#030305" stroke-width="3"/><path d="M37.392 46.52c-1.837 0-3.45-.537-4.836-1.612-1.352-1.11-2.86-3.085-4.524-5.928l-5.2-8.84h-3.64V46h-4.68V17.92c0-1.768-.243-3.068-.728-3.9-.485-.867-1.456-1.3-2.912-1.3h-1.04v-1.04h13.52c3.293 0 6.275.659 8.944 1.976C35 14.939 36.352 17.4 36.352 21.04c0 4.61-2.773 7.557-8.32 8.84l5.46 9.1c1.283 2.15 2.427 3.657 3.432 4.524a6.72 6.72 0 003.588 1.456V46c-.312.139-.763.26-1.352.364a9.588 9.588 0 01-1.768.156zm-14.3-18.2c1.075 0 2.236-.26 3.484-.78a7.703 7.703 0 003.224-2.444c.901-1.11 1.352-2.461 1.352-4.056 0-1.699-.45-3.103-1.352-4.212-.867-1.144-1.941-1.976-3.224-2.496-1.248-.555-2.41-.832-3.484-.832-1.213 0-2.513.173-3.9.52V27.8c1.387.347 2.687.52 3.9.52z" fill="#030305"/><path fill="#030305" d="M12 45h15v2H12z"/></svg>