<svg width="35" height="35" fill="none" xmlns="http://www.w3.org/2000/svg"><path d="M14.803 14.468a4.84 4.84 0 00-4.836 4.835 4.84 4.84 0 004.836 4.836 4.84 4.84 0 004.835-4.835 4.84 4.84 0 00-4.835-4.836zm0 8.29a3.459 3.459 0 01-3.455-3.454 3.459 3.459 0 013.455-3.455 3.459 3.459 0 013.454 3.454 3.459 3.459 0 01-3.454 3.455z" fill="#030305"/><path d="M14.803 12.3a7.012 7.012 0 00-7.004 7.004 7.012 7.012 0 007.004 7.004 7.012 7.012 0 007.004-7.004 7.012 7.012 0 00-7.004-7.004zm0 12.627a5.63 5.63 0 01-5.624-5.623 5.63 5.63 0 015.624-5.624 5.63 5.63 0 015.623 5.624 5.63 5.63 0 01-5.623 5.623z" fill="#030305"/><path d="M33.645 8.195h-1.539a9.082 9.082 0 00-.604-1.457l1.088-1.089a.69.69 0 000-.976l-2.928-2.928a.69.69 0 00-.976 0l-1.089 1.088a9.105 9.105 0 00-1.456-.604V.69a.69.69 0 00-.69-.69h-4.142a.69.69 0 00-.69.69v1.54a9.11 9.11 0 00-1.458.604l-1.089-1.088a.69.69 0 00-.976 0L14.34 4.5h-1.58a.69.69 0 00-.69.69v1.837c-.35.077-.698.17-1.04.277l-.917-1.59a.69.69 0 00-.943-.252L5.632 7.505a.69.69 0 00-.252.943l.92 1.593c-.264.242-.518.496-.76.76l-1.593-.92a.69.69 0 00-.943.252L.962 13.671a.69.69 0 00.253.943l1.589.918c-.107.341-.2.688-.277 1.039H.69a.69.69 0 00-.69.69v4.085c0 .381.309.69.69.69h1.837c.077.35.17.698.277 1.04l-1.59.917a.69.69 0 00-.252.943l2.042 3.538a.69.69 0 00.943.253l1.593-.92c.242.264.496.517.76.76l-.92 1.592a.69.69 0 00.252.943l3.538 2.042a.69.69 0 00.943-.252l.918-1.59c.341.108.688.2 1.039.278v1.836c0 .381.309.69.69.69h4.085a.69.69 0 00.69-.69V31.58c.35-.078.698-.17 1.04-.278l.917 1.59a.69.69 0 00.943.252l3.538-2.042a.69.69 0 00.252-.943l-.92-1.593c.264-.242.518-.495.76-.759l1.593.92a.69.69 0 00.943-.253l2.042-3.538a.69.69 0 00-.253-.943l-1.589-.918c.107-.341.2-.688.277-1.039h1.837a.69.69 0 00.69-.69v-1.128a.728.728 0 00.057-.05l2.928-2.93a.69.69 0 000-.975l-1.088-1.089c.243-.467.445-.954.604-1.457h1.539a.69.69 0 00.69-.69V8.885a.69.69 0 00-.69-.69zm-5.42 12.46h-1.713a.69.69 0 00-.68.573 11.148 11.148 0 01-.514 1.925.69.69 0 00.303.835l1.482.855-1.353 2.343-1.485-.858a.69.69 0 00-.874.155c-.426.509-.9.983-1.409 1.409a.69.69 0 00-.155.874l.858 1.485-2.342 1.352-.856-1.481a.69.69 0 00-.835-.303c-.62.227-1.268.4-1.925.513a.69.69 0 00-.572.68v1.714H13.45v-1.714a.69.69 0 00-.572-.68 11.151 11.151 0 01-1.925-.513.69.69 0 00-.835.303l-.855 1.482L6.92 30.25l.858-1.485a.69.69 0 00-.155-.874 11.29 11.29 0 01-1.408-1.409.69.69 0 00-.875-.155l-1.485.858-1.352-2.343 1.482-.855a.69.69 0 00.303-.835 11.14 11.14 0 01-.514-1.925.69.69 0 00-.68-.572H1.38V17.95h1.713a.69.69 0 00.68-.572 11.14 11.14 0 01.514-1.925.69.69 0 00-.303-.835l-1.482-.855 1.352-2.343 1.485.858a.69.69 0 00.875-.155c.426-.509.9-.983 1.408-1.409a.69.69 0 00.155-.874L6.92 8.356l2.343-1.352.855 1.481a.69.69 0 00.835.304c.621-.228 1.269-.4 1.925-.514a.69.69 0 00.572-.68V5.88h2.705v1.714a.69.69 0 00.572.68c.657.114 1.304.286 1.925.514a.69.69 0 00.835-.303l.856-1.482 2.342 1.352-.858 1.485a.69.69 0 00.155.875c.509.426.983.9 1.409 1.408a.69.69 0 00.874.155l1.485-.857 1.353 2.342-1.482.855a.69.69 0 00-.303.836c.227.62.4 1.268.513 1.924a.69.69 0 00.68.572h1.714v2.705zm4.73-8.318h-1.37a.69.69 0 00-.67.522 7.7 7.7 0 01-.862 2.08.69.69 0 00.104.843l.97.969-1.522 1.521v-1.011a.69.69 0 00-.69-.69H27.08a12.58 12.58 0 00-.277-1.04l1.589-.917a.69.69 0 00.253-.943L26.6 10.133a.69.69 0 00-.943-.252l-1.593.92a12.645 12.645 0 00-.759-.76l.92-1.593a.69.69 0 00-.253-.943l-3.538-2.042a.69.69 0 00-.943.252l-.917 1.59c-.342-.107-.689-.2-1.04-.278V5.191a.69.69 0 00-.69-.69h-.553l1.292-1.292.97.969a.69.69 0 00.841.105 7.73 7.73 0 012.082-.863.69.69 0 00.522-.67V1.38h2.761v1.37a.69.69 0 00.522.67c.73.183 1.43.474 2.08.863a.69.69 0 00.843-.105l.969-.97 1.952 1.953-.97.97a.69.69 0 00-.103.842 7.71 7.71 0 01.862 2.08.69.69 0 00.67.523h1.37v2.76z" fill="#030305"/></svg>